<svg width="78" height="78" viewBox="0 0 78 78" fill="none" xmlns="http://www.w3.org/2000/svg">
<path d="M47.5149 24.7331C47.1084 26.4938 45.6883 27.9249 43.9304 28.3452C41.9637 28.8149 40.1453 28.1117 38.9999 26.8097V38.9972H26.8125C28.1144 37.8518 28.8176 36.0334 28.3479 34.0667C27.9276 32.3088 26.4938 30.8887 24.7359 30.4822C21.4892 29.7295 18.6078 32.1714 18.6078 35.289C18.6078 36.7723 19.2643 38.0935 20.2888 38.9972H8.09863V13.0428C8.09863 10.3125 10.3125 8.09863 13.0428 8.09863H38.9999V20.2861C39.9009 19.2588 41.2248 18.6051 42.7081 18.6051C45.8257 18.6051 48.2676 21.4864 47.5149 24.7331Z" stroke="#E76943" stroke-width="2" stroke-linecap="round" stroke-linejoin="round"/>
<path d="M39 50.1245V39H50.1245" stroke="#E76943" stroke-width="2" stroke-linecap="round" stroke-linejoin="round"/>
<path d="M58.7768 39H69.9013V64.9571C69.9013 67.6874 67.6874 69.9013 64.9571 69.9013H39V58.7768" stroke="#E76943" stroke-width="2" stroke-linecap="round" stroke-linejoin="round"/>
<path d="M39 27.8755V38.9999H51.2122C49.8992 40.1481 49.1768 41.9555 49.6548 43.9276C50.0833 45.6911 51.5226 47.1194 53.2942 47.5204C56.5272 48.2538 59.3948 45.8147 59.3948 42.7081C59.3948 41.2221 58.7274 39.9064 57.6891 38.9999H69.9013V13.0428C69.9013 10.3125 67.6874 8.09863 64.9571 8.09863H39V19.2231" stroke="white" stroke-width="2" stroke-linecap="round" stroke-linejoin="round"/>
<path d="M19.2231 39H8.09863V64.9571C8.09863 67.6874 10.3125 69.9013 13.0428 69.9013H38.9999V57.6891C40.1481 59.0021 41.9555 59.7245 43.9304 59.2465C45.6938 58.818 47.1222 57.3787 47.5232 55.607C48.2566 52.3741 45.8174 49.5064 42.7108 49.5064C41.2248 49.5064 39.9091 50.1739 39.0027 51.2122V39H27.8782" stroke="white" stroke-width="2" stroke-linecap="round" stroke-linejoin="round"/>
</svg>
