<svg width="78" height="78" viewBox="0 0 78 78" fill="none" xmlns="http://www.w3.org/2000/svg">
<path d="M2.37988 38.6023C2.60622 38.7056 2.83653 38.8141 3.06817 38.9279C7.3104 41.006 10.4103 42.3204 15.2177 40.3323C19.7723 38.4488 21.5566 34.8644 27.632 36.2238C32.3084 37.2694 34.323 41.374 39.3422 41.926C45.5513 42.609 47.2363 38.5931 51.8147 36.5322C54.2608 35.4309 56.5149 35.2496 58.6102 35.6599" stroke="#E76943" stroke-width="2" stroke-linecap="round" stroke-linejoin="round"/>
<path d="M47.3383 57.6321C47.3383 59.9167 45.4866 61.7697 43.2007 61.7697C40.9148 61.7697 39.063 59.918 39.063 57.6321C39.063 55.3461 40.9148 53.4944 43.2007 53.4944C45.4866 53.4944 47.3383 55.3461 47.3383 57.6321Z" stroke="#E76943" stroke-width="2" stroke-linecap="round" stroke-linejoin="round"/>
<path d="M29.5897 51.5566C31.2411 51.5566 32.5798 50.2179 32.5798 48.5665C32.5798 46.9151 31.2411 45.5764 29.5897 45.5764C27.9383 45.5764 26.5996 46.9151 26.5996 48.5665C26.5996 50.2179 27.9383 51.5566 29.5897 51.5566Z" stroke="#E76943" stroke-width="2" stroke-linecap="round" stroke-linejoin="round"/>
<path d="M30.2424 64.6062C30.2424 67.0748 28.241 69.0761 25.7712 69.0761C23.3013 69.0761 21.3013 67.0748 21.3013 64.6062C21.3013 62.1377 23.3026 60.135 25.7712 60.135C28.2397 60.135 30.2424 62.1363 30.2424 64.6062Z" stroke="#E76943" stroke-width="2" stroke-linecap="round" stroke-linejoin="round"/>
<path d="M69.0839 19.9575L66.0117 16.8867" stroke="white" stroke-width="2" stroke-linecap="round" stroke-linejoin="round"/>
<path d="M58.041 8.91592L56.9424 7.81731C55.4242 6.29911 55.4242 3.83849 56.9424 2.32029C58.4606 0.802091 60.9212 0.802091 62.4381 2.32029L75.6796 15.5618C77.1978 17.08 77.1978 19.5407 75.6796 21.0575C74.1614 22.5757 71.7008 22.5757 70.1839 21.0575L69.084 19.9576" stroke="white" stroke-width="2" stroke-linecap="round" stroke-linejoin="round"/>
<path d="M54.2819 28.041C63.861 39.7855 63.1767 57.1105 52.229 68.0582C40.5506 79.7352 21.6174 79.7352 9.94039 68.0582C-1.73664 56.3798 -1.73664 37.4467 9.94039 25.7696C19.7088 16.0013 34.5559 14.4036 45.9841 20.9794L45.9139 21.0403L54.4275 12.5267L58.0397 8.91455" stroke="white" stroke-width="2" stroke-linecap="round" stroke-linejoin="round"/>
<path d="M69.3089 20.1841L65.6967 23.7963L57.1831 32.3098" stroke="white" stroke-width="2" stroke-linecap="round" stroke-linejoin="round"/>
<path d="M17.3368 52.8552C17.3368 54.3032 16.1627 55.4759 14.716 55.4759C13.2693 55.4759 12.0952 54.3019 12.0952 52.8552C12.0952 51.4084 13.2693 50.2344 14.716 50.2344C16.1627 50.2344 17.3368 51.4084 17.3368 52.8552Z" stroke="#E76943" stroke-width="2" stroke-linecap="round" stroke-linejoin="round"/>
</svg>
