<svg width="78" height="78" viewBox="0 0 78 78" fill="none" xmlns="http://www.w3.org/2000/svg">
<path d="M66.5347 40.9317C72.0678 33.9909 76.7783 25.9045 76.7783 19.5C76.7783 9.40266 68.5944 1.21875 58.4971 1.21875C51.7147 1.21875 45.8099 4.9207 42.6533 10.4051C39.4968 4.9207 33.5919 1.21875 26.8096 1.21875C16.7122 1.21875 8.52832 9.40266 8.52832 19.5C8.52832 25.6181 12.8275 33.2719 18.0346 39.9933" stroke="#E76943" stroke-width="2" stroke-linecap="round" stroke-linejoin="round"/>
<path d="M23.1533 32.9062H32.9033L35.3408 28.0312L40.2158 37.7812L48.7471 18.2812L53.6221 32.9062H62.1533" stroke="#E76943" stroke-width="2" stroke-linecap="round" stroke-linejoin="round"/>
<path d="M1.21875 57.2814L8.52516 53.6343L20.7127 73.1343L14.625 76.7814" stroke="white" stroke-width="2" stroke-linecap="round" stroke-linejoin="round"/>
<path d="M32.9062 56.0626L47.519 56.0535C50.2094 56.0535 52.391 53.8719 52.391 51.1815C52.391 48.4911 50.2094 46.3096 47.519 46.3096H28.5522C26.6144 46.3096 24.7101 46.8214 23.0374 47.7964L9.72253 55.5416" stroke="white" stroke-width="2" stroke-linecap="round" stroke-linejoin="round"/>
<path d="M49.2586 55.7304L70.0413 46.7147C72.5184 45.6879 75.3855 46.8761 76.4093 49.3532C77.4361 51.8304 76.2478 54.6975 73.7707 55.7243L52.2354 66.0684C50.7302 66.7052 49.1154 67.0343 47.4823 67.0343H27.6441C26.7757 67.0343 25.9226 67.2658 25.173 67.7076L19.4297 71.0836" stroke="white" stroke-width="2" stroke-linecap="round" stroke-linejoin="round"/>
</svg>
