<svg width="78" height="78" viewBox="0 0 78 78" fill="none" xmlns="http://www.w3.org/2000/svg">
<g clip-path="url(#clip0_1979_52196)">
<path d="M25.9787 57.0851H6.06378C5.21739 57.0851 4.53186 56.3996 4.53186 55.5532V12.6596C4.53186 11.8132 5.21739 11.1277 6.06378 11.1277H12.1914" stroke="white" stroke-width="2" stroke-linecap="round" stroke-linejoin="round"/>
<path d="M52.0212 11.1277H58.1489C58.9953 11.1277 59.6808 11.8132 59.6808 12.6596V29.5107" stroke="white" stroke-width="2" stroke-linecap="round" stroke-linejoin="round"/>
<path d="M4.53186 23.3831H59.6808" stroke="white" stroke-width="2" stroke-linejoin="round"/>
<path d="M47.4255 6.53198V14.1916" stroke="#E76943" stroke-width="2" stroke-linecap="round" stroke-linejoin="round"/>
<path d="M21.3829 11.1277H42.8297" stroke="white" stroke-width="2" stroke-linecap="round" stroke-linejoin="round"/>
<path d="M16.7872 6.53198V14.1916" stroke="#E76943" stroke-width="2" stroke-linecap="round" stroke-linejoin="round"/>
<path d="M41.1915 64.5745H35.0638C33.3711 64.5745 32 63.2034 32 61.5106V40.0638C32 38.3711 33.3711 37 35.0638 37H70.2979C71.9906 37 73.3617 38.3711 73.3617 40.0638V61.5106C73.3617 63.2034 71.9906 64.5745 70.2979 64.5745H51.9149L43.8072 72.6821C42.8421 73.6472 41.1915 72.9636 41.1915 71.5983V64.5726V64.5745Z" stroke="#E76943" stroke-width="2" stroke-linejoin="round"/>
<path d="M42.8298 46.3618H62.7447" stroke="#E76943" stroke-width="2" stroke-linecap="round" stroke-linejoin="round"/>
<path d="M42.8298 52.4893H55.0852" stroke="#E76943" stroke-width="2" stroke-linecap="round" stroke-linejoin="round"/>
</g>
<defs>
<clipPath id="clip0_1979_52196">
<rect width="72" height="68.3043" fill="white" transform="translate(3 5)"/>
</clipPath>
</defs>
</svg>
