<svg width="79" height="79" viewBox="0 0 79 79" fill="none" xmlns="http://www.w3.org/2000/svg">
<g clip-path="url(#clip0_81_1409)">
<rect width="79" height="79" rx="39.5" fill="white"/>
<path d="M55.167 36.0741C55.1066 31.1989 55.178 27.1709 54.766 23.8262C54.4396 21.1771 53.7694 18.2874 50.716 16.0317C48.2075 14.1781 43.0708 12.7508 38.0638 14.8011C37.0815 15.2032 36.4849 16.1965 35.5399 16.6601C34.7818 17.0326 34.0522 17.2117 33.4084 17.8051C32.1843 18.9313 31.6251 20.619 31.3218 22.21C30.8526 24.6624 30.9372 27.1763 31.0317 29.6573C31.1372 32.4328 31.1922 35.2412 31.0482 38.0145C31.0032 38.8935 30.4439 40.7713 31.457 41.2921C32.5711 41.8656 34.5917 41.6843 35.7872 41.7722C36.6772 41.8371 44.8563 41.0932 45.3277 41.1866C45.9166 41.3031 46.4671 41.5799 47.0758 41.6733C47.7109 41.7711 48.3383 41.8041 48.9788 41.8217C50.4863 41.8623 51.9762 42.1601 53.4848 42.17C55.5461 42.1843 55.3176 39.7527 55.2384 38.3254C55.1967 37.5772 55.1758 36.8256 55.1659 36.0741H55.167Z" fill="#002B4D"/>
<path d="M57.3227 49.0602C57.3227 49.0602 61.6672 51.7753 62.1694 57.1482C62.6023 61.7685 63.1264 65.09 63.8439 68.6851C64.5624 72.2803 64.5613 86.5718 66.0623 91.0108C67.5621 95.4508 68.73 100.527 67.4577 103.26C66.1842 105.993 58.1292 106.853 58.1292 106.853C58.1292 106.853 53.7803 98.6724 52.1597 93.0248C50.5379 87.3772 49.8523 61.8684 49.8523 61.8684L57.3238 49.0591L57.3227 49.0602Z" fill="#FFD6B3"/>
<path d="M47.7767 43.7983C47.7767 43.7983 52.4058 52.7598 53.0892 57.6482C53.7726 62.5365 55.8911 84.7171 57.0623 88.3057C58.2336 91.8942 58.9335 106.829 58.9335 106.829L61.4233 106.749C61.4233 106.749 62.1529 91.6184 61.2255 86.2092C60.2993 80.8001 58.5105 72.0342 58.4852 68.8544C58.4599 65.6746 59.3126 52.0511 58.0336 49.825C56.7547 47.5989 47.7756 43.7972 47.7756 43.7972L47.7767 43.7983Z" fill="#FFD6B3"/>
<path d="M37.7925 19.952C39.9493 19.1093 45.9782 16.0306 45.9782 16.0306C45.9782 16.0306 49.7437 19.2917 50.8534 23.2C50.8754 23.2835 50.9006 23.367 50.9182 23.4516C50.9973 23.7417 51.0611 24.0438 51.116 24.3526C51.8236 28.1971 51.1523 33.2415 50.6457 34.4128C49.5722 36.8971 46.9836 38.9375 46.3562 39.0473C44.1521 39.4352 38.9286 37.2739 37.3892 36.0917C35.851 34.9094 35.7455 33.7612 35.7455 33.7612L35.6499 24.6613C35.6499 24.6613 35.6367 20.7948 37.7936 19.952H37.7925Z" fill="#FF6B42"/>
<path d="M47.7769 43.7983C47.7769 43.7983 49.3898 46.8902 48.8416 49.7646C47.8087 55.1804 44.2652 62.0937 44.0905 62.052C43.8224 61.9817 30.4319 46.4705 30.4319 46.4705C30.4319 46.4705 35.451 42.5249 35.6147 41.803C35.7795 41.0789 35.74 30.7133 35.74 30.7133C35.74 30.7133 40.5888 33.0338 40.8327 33.0261C41.0777 33.0184 46.3518 36.2477 46.3518 36.2477C46.3518 36.2477 46.3584 36.6345 46.3671 37.2234C46.3858 38.1991 46.4166 39.7297 46.4649 40.9614C46.5001 41.9843 46.5473 42.8018 46.6023 42.927C46.7649 43.2995 47.7747 43.7983 47.7747 43.7983H47.7769Z" fill="#FF6B42"/>
<path d="M46.5231 42.7721C45.2321 42.4623 43.0851 41.7481 42.0534 41.1064C40.6667 40.2439 39.8877 38.3804 40.4843 38.1343C41.081 37.8892 41.0469 37.965 43.3334 38.6089C45.6199 39.2561 46.4253 39.0341 46.4253 39.0341C46.444 40.0098 46.4747 41.5404 46.5231 42.7721V42.7721Z" fill="#D94921"/>
<path d="M40.4348 26.7127C40.247 26.1776 39.6119 26.3182 39.5756 26.8632C39.5536 27.1807 39.5602 27.7653 39.8954 27.9356C40.1591 28.0685 40.4008 27.8641 40.4777 27.6202C40.5337 27.4411 40.5425 27.0203 40.4348 26.7138V26.7127Z" fill="black"/>
<path d="M49.0557 26.8369C48.8854 26.3523 48.3107 26.4798 48.2767 26.9731C48.2569 27.2599 48.2624 27.7906 48.5668 27.9444C48.8052 28.0653 49.0249 27.8796 49.0942 27.6587C49.1447 27.4961 49.1524 27.1148 49.0557 26.8369V26.8369Z" fill="black"/>
<path d="M41.5062 24.269C41.3293 23.8186 40.5976 23.8185 40.213 23.8273C39.4834 23.8427 38.0078 23.9845 37.6199 24.714C37.409 25.1096 38.3528 24.9865 38.5297 24.9689C39.0098 24.9228 39.4911 24.8646 39.9735 24.8316C40.3998 24.8019 40.8689 24.8481 41.2601 24.6459C41.4996 24.5229 41.5535 24.391 41.5062 24.2701V24.269Z" fill="#002B4D"/>
<path d="M50.996 25.0459C50.54 25.0316 49.4105 24.9008 48.9556 24.8975C48.4974 24.8975 47.9986 24.9734 47.5679 24.7976C47.3053 24.6899 47.2383 24.5624 47.2789 24.4383C47.4393 23.9768 48.2217 23.9295 48.6315 23.9142C49.0501 23.8955 50.2818 24.0207 50.7862 24.146C50.8708 24.4361 50.9378 24.7382 50.996 25.0459V25.0459Z" fill="#002B4D"/>
<path d="M45.8628 30.2056C45.7858 29.621 45.5408 28.9519 45.2705 28.4333C45.0914 28.0905 45.6024 27.7674 45.7825 28.1124C46.1122 28.7453 46.3891 29.5122 46.4759 30.2242C46.5528 30.8604 46.1627 31.3208 45.9573 31.89C45.8265 32.2514 45.2376 32.1141 45.3705 31.7482C45.5551 31.2351 45.9386 30.7769 45.8628 30.2067V30.2056Z" fill="#D94921"/>
<path d="M47.7768 43.7983C47.7768 43.7983 46.4363 52.6213 43.0708 52.2258C39.046 51.7533 34.4961 43.0621 34.4961 43.0621L31.3394 56.0351C31.3394 56.0351 30.2384 76.9181 29.0847 81.0341C27.931 85.15 24.8237 93.8928 24.8237 93.8928C24.8237 93.8928 35.2608 98.212 44.597 97.9923C53.9342 97.7725 62.9901 93.5829 62.288 91.1316C61.0201 86.7025 59.7005 85.0159 59.4302 81.2044C59.0753 76.1852 55.9328 64.0473 55.2868 61.5839C52.7102 51.7544 47.7757 43.7994 47.7757 43.7994L47.7768 43.7983Z" fill="#0062AD"/>
<path d="M34.496 43.0611C34.496 43.0611 32.3798 50.336 32.7061 56.4692C33.0325 62.6025 32.8677 81.2407 31.6491 84.905C30.4306 88.5694 25.7148 104.078 25.2665 107.894C24.8182 111.71 27.4453 125.284 26.8959 127.014C21.957 142.559 24.6358 146.979 18.0575 139.924C15.8677 137.576 12.8241 136.867 14.2635 128.261C15.7029 119.654 24.8138 86.129 24.9588 81.189C25.1049 76.249 13.8713 54.6991 22.3701 48.7395C27.6969 45.0037 34.4949 43.0611 34.4949 43.0611H34.496Z" fill="#FFD6B3"/>
<path d="M21.1572 49.8448C21.1572 49.8448 6.54594 65.6417 6.91952 77.1566C7.19641 85.6808 20.7177 100.435 22.8899 100.938C25.0622 101.441 27.6377 84.1898 27.3553 83.2163C27.0729 82.2428 24.0195 58.9986 24.1129 57.1834C24.2063 55.3672 21.1561 49.8448 21.1561 49.8448H21.1572Z" fill="#FFD6B3"/>
<path d="M23.1383 67.615C24.1448 64.5593 25.2952 61.7564 25.0391 58.4788C24.8194 55.6616 24.1338 52.2302 22.1 50.1206C21.8308 49.8415 22.2428 49.3998 22.5131 49.68C24.3326 51.5665 25.071 54.3596 25.4578 56.8801C25.9775 60.2588 25.3677 63.0771 24.2393 66.2778C23.5152 68.3313 22.8164 70.3827 22.7746 72.5835C22.7329 74.7448 23.2833 76.8302 23.9975 78.853C25.0271 81.768 26.8488 85.2028 25.5984 88.3221C25.4545 88.6825 24.9238 88.3913 25.0677 88.0342C26.4082 84.6918 23.8646 80.6814 22.9295 77.54C21.9209 74.1548 22.0373 70.9607 23.1394 67.6161L23.1383 67.615Z" fill="#FABD8B"/>
<path d="M46.745 33.2887C46.6505 33.225 46.5219 33.1854 46.3593 33.1843C45.3814 33.1799 44.4024 33.1865 43.4245 33.1777C42.6576 33.1711 42.6883 33.6788 43.1224 34.1227C43.6915 34.705 44.6694 34.8764 45.466 34.7534C45.9033 34.6863 46.4263 34.4666 46.7307 34.1512C47.0109 33.8601 47.0153 33.4722 46.745 33.2887Z" fill="white"/>
<path d="M53.9409 27.9521C53.6025 26.8401 53.3487 25.5458 52.4257 24.7833C52.1851 23.8702 51.8664 22.9769 51.4984 22.1386C50.7765 20.4992 49.8107 19.0972 48.9163 17.5688C48.3306 16.569 47.6088 15.3131 46.3397 15.1043C44.552 14.811 42.8424 15.9526 41.203 16.4031C39.4878 16.8744 38.5067 17.7622 37.2618 18.9906C35.818 20.4157 33.9523 21.5002 32.7887 23.1978C32.1932 24.0658 32.2679 24.8041 32.3943 25.6194C32.3371 25.9523 32.2998 26.2985 32.2503 26.661C32.0614 28.0488 31.3142 29.2728 31.4493 30.7045C31.4823 31.0583 31.8867 31.233 32.1339 31.0022C34.0215 30.8045 35.8652 27.7016 36.7497 26.3633C37.4661 25.281 38.2078 24.1416 38.6759 22.9264C39.0725 21.8968 39.1417 20.8047 39.3252 19.7323C43.6027 21.4046 49.1547 21.9705 50.2227 27.284C50.7094 29.7123 50.7303 32.1735 50.5545 34.6281C50.4644 35.9236 50.5062 37.2278 50.4523 38.5298C50.4128 39.4264 50.2557 40.4142 50.3798 41.2987C50.4084 41.514 50.7259 41.5008 50.8017 41.325C53.4355 39.4429 54.0277 36.1158 54.443 33.0349C54.6825 31.2505 54.4595 29.6573 53.9409 27.951V27.9521Z" fill="#002B4D"/>
<path d="M34.9389 31.7241C35.2774 32.1669 35.5707 33.0173 36.1267 33.4195C36.4706 33.7964 36.898 34.1622 37.2969 34.2128C38.7802 34.3985 37.6693 31.1418 37.5727 30.5759C37.5067 30.1891 37.4254 28.8498 37.0046 28.1718C37.0068 28.1499 37.0079 28.1268 37.0035 28.1015C36.8618 27.3642 36.0003 26.9742 35.2894 27.2258C34.5225 27.4972 34.1303 28.1092 34.0138 28.8289C33.8545 29.8101 34.3368 30.9363 34.9389 31.7252V31.7241Z" fill="#FF6B42"/>
</g>
<defs>
<clipPath id="clip0_81_1409">
<rect width="79" height="79" rx="39.5" fill="white"/>
</clipPath>
</defs>
</svg>
