<svg width="79" height="79" viewBox="0 0 79 79" fill="none" xmlns="http://www.w3.org/2000/svg">
<g clip-path="url(#clip0_694_200)">
<rect width="79" height="79" rx="39.5" fill="white"/>
<path d="M53.8499 29.9829C53.7569 29.0867 53.3735 28.2211 53.2006 27.335C53.5419 26.3197 53.6959 25.1955 53.6901 24.4213C53.6828 23.3552 53.5623 21.7952 53.0103 20.9208C52.6356 20.3267 51.9674 19.6106 51.2877 19.4407C51.1918 19.3332 51.0959 19.2272 51.0059 19.1139C51.0771 16.7899 50.5004 14.3933 48.4916 13.1093C46.8576 12.0649 44.9112 11.4795 43.0666 12.0562C42.5509 10.3786 41.2771 9.12795 39.5341 8.78371C38.3285 8.5455 37.0953 8.6617 35.9653 9.21946C34.6813 9.85275 33.894 10.7112 33.2303 11.8703C30.0231 11.6321 26.7115 13.3373 25.2386 16.5197C24.8189 17.4362 24.5647 18.4254 24.5182 19.4451C24.4717 20.4124 24.9917 21.6311 24.6228 22.4154C24.1957 23.3145 23.6685 23.8955 23.6699 24.9994C23.6685 25.8695 23.9212 26.8586 24.4485 27.5471C24.1028 28.4898 23.9546 29.4934 24.0606 30.4594C24.2015 31.7564 25.5959 35.2076 27.2373 35.1843C27.2489 35.3136 27.2663 35.4414 27.2837 35.5678C27.2925 36.0195 27.2605 36.4654 27.3723 36.9201C27.4958 37.4212 27.7166 37.9179 27.9606 38.3508C28.3295 39.0073 28.8423 39.4605 29.4407 39.8193C30.1713 40.2579 32.3297 41.2994 32.7814 39.918C32.8352 39.7539 32.7277 39.5375 32.5824 39.4997C32.1975 39.3995 31.7981 39.5375 31.4001 39.475C30.8888 39.3966 30.3863 39.1802 29.9229 38.9085C30.0667 38.9187 30.2018 38.894 30.3195 38.817C30.8351 38.9187 31.3522 38.8897 31.8911 38.9565C32.8279 39.0698 33.7241 39.3821 34.6566 39.5331C35.8811 39.7336 37.0968 39.8207 38.3038 40.1257C38.3663 40.1403 38.4316 40.1548 38.4941 40.1737C40.6118 42.242 44.3244 42.6095 46.9084 41.3836C47.1379 41.2747 47.3892 41.1323 47.6506 40.9624C48.3275 40.7067 48.9666 40.3538 49.5098 39.9573C50.345 39.3472 51.0495 37.9296 51.0277 36.6615C51.0916 36.2853 51.0858 35.9091 50.9943 35.5417C51.536 35.1277 52.0226 34.6295 52.4017 34.1821C53.4286 32.9736 54.0256 31.6214 53.8499 29.9786V29.9829Z" fill="#001526"/>
<path d="M27.6631 25.9261C27.6631 25.9261 28.2484 38.8272 29.4395 42.197C30.5841 45.4346 36.7673 49.7209 38.5989 49.8241C41.424 49.9824 46.9261 45.4695 48.1012 43.1891C49.6626 40.1577 50.6169 27.9567 50.6169 27.9567L40.2475 18.2729L29.2173 19.1009L27.6631 25.9261V25.9261Z" fill="#FF6B42"/>
<path d="M54.662 61.7433C54.662 61.7433 45.3587 78.2465 44.4407 79.2589C43.5184 80.2742 39.6824 80.8 38.5392 80.8015C37.3947 80.8073 33.3161 77.1513 32.9675 76.4324C32.6218 75.709 21.728 61.6953 21.728 61.6953C21.728 61.6953 27.8401 56.8716 30.3326 53.6427C30.7451 53.1096 31.0516 52.4763 31.2768 51.7966C31.9783 49.6774 31.8795 47.0745 31.7052 45.3896C31.5919 44.3467 31.454 43.6553 31.454 43.6553L45.8627 43.1571C45.8627 43.1571 45.5911 48.9569 46.5992 52.9963C47.6072 57.0357 54.6634 61.7418 54.6634 61.7418L54.662 61.7433Z" fill="#FF6B42"/>
<path d="M28.2589 30.0527C28.1746 30.0236 26.9211 29.5022 25.823 30.0193C24.7249 30.5364 25.0793 33.4631 25.7606 34.6397C27.0518 36.8707 29.0621 37.0087 29.0621 37.0087L28.2603 30.0512L28.2589 30.0527Z" fill="#FF6B42"/>
<path d="M49.5639 30.3402C49.6481 30.3141 50.9147 29.826 51.9997 30.3736C53.0847 30.9212 52.6504 33.8364 51.9373 34.994C50.585 37.1887 48.5732 37.273 48.5732 37.273L49.5639 30.3402V30.3402Z" fill="#FF6B42"/>
<path d="M33.0374 32.0862C32.8471 31.4529 32.1005 31.5836 32.0293 32.2154C31.9872 32.5829 31.9639 33.2656 32.346 33.4806C32.6452 33.6491 32.9386 33.4239 33.0403 33.1436C33.1158 32.9373 33.1463 32.4478 33.0388 32.0862H33.0374Z" fill="black"/>
<path d="M45.6858 31.935C45.4955 31.3017 44.7489 31.4325 44.6777 32.0643C44.6356 32.4318 44.6124 33.1144 44.9944 33.3294C45.2936 33.4979 45.587 33.2728 45.6887 32.9924C45.7642 32.7862 45.7947 32.2967 45.6872 31.935H45.6858Z" fill="black"/>
<path d="M34.7483 28.9516C34.773 28.221 32.5681 28.1585 32.1295 28.1759C31.454 28.2035 30.767 28.3067 30.1453 28.5318C29.8113 28.6538 28.3733 29.3626 29.4046 29.5674C30.5259 29.7896 31.563 29.2871 32.6785 29.396C33.2493 29.4512 34.4491 29.6793 34.7033 29.1288C34.7323 29.0663 34.7468 29.0068 34.7483 28.9516V28.9516Z" fill="#001526"/>
<path d="M42.5772 29.0853C42.5641 28.343 44.7704 28.3212 45.2091 28.3474C45.883 28.3881 46.5701 28.5057 47.1874 28.7468C47.52 28.8761 48.9463 29.6241 47.9107 29.813C47.2861 29.9263 46.6572 29.7883 46.0385 29.704C45.3558 29.6111 44.6615 29.569 43.973 29.5922C43.578 29.6053 42.827 29.7447 42.6193 29.2654C42.5917 29.2015 42.5772 29.1405 42.5772 29.0838V29.0853Z" fill="#001526"/>
<path d="M43.6492 50.3745C42.7487 51.3302 40.4363 53.1749 38.1196 53.2911C36.2313 53.3855 32.5725 52.2308 31.2769 51.7979C31.9784 49.6787 31.8855 47.134 31.7112 45.4491C31.7112 45.4491 36.301 50.0099 39.1247 49.4028C41.257 48.9438 42.5018 48.0708 43.1176 48.1391C43.732 48.203 44.5541 49.4188 43.6507 50.3745H43.6492Z" fill="#D94921"/>
<path d="M80.4771 126.453C78.5438 130.414 78.6528 131.236 75.6054 130.963C72.5581 130.686 67.5063 131.322 65.3537 134.345C63.2011 137.363 53.054 141.57 46.9535 141.719C40.8516 141.873 25.9838 139.461 22.1071 139.809C18.2304 140.158 15.231 139.716 14.5324 136.236C14.1765 134.478 7.14206 134.127 3.56456 130.857C0.446055 128.013 0.0204738 113.638 1.51364 102.455C1.73732 100.801 2.00023 99.2133 2.30234 97.7463C2.57396 96.423 2.80927 95.0882 3.02569 93.7548C3.74031 89.3407 4.21528 84.9164 4.97784 80.8537C5.61549 77.452 6.45358 74.303 7.79568 71.6289C8.53645 70.1503 9.43555 68.8183 10.5351 67.668C12.2098 65.9162 17.0394 62.712 21.285 60.0467C24.3091 58.1454 27.034 56.5171 28.1234 55.8708H28.1263C28.4487 55.6776 28.6259 55.5745 28.6259 55.5745C28.6259 55.5745 33.8273 56.9122 38.7367 56.8628C43.9527 56.8105 48.1082 55.8388 48.1082 55.8388C48.1082 55.8388 48.8403 56.1162 50.0328 56.6072C50.0401 56.6072 50.043 56.6115 50.043 56.6115C51.6741 57.2782 54.1622 58.3386 56.8406 59.6284C61.3506 61.8013 66.3923 64.6177 68.7526 67.2888C69.2101 67.8059 69.6938 68.4799 70.2007 69.286C71.6169 71.5432 73.1914 74.8346 74.7659 78.5791C76.2896 82.2031 77.8118 86.2541 79.2018 90.218C80.2621 93.2595 81.2455 96.2531 82.0821 98.9605C83.5622 103.752 84.5906 107.66 84.8128 109.384C85.5579 115.141 82.4075 122.49 80.4786 126.453H80.4771Z" fill="#002B4D"/>
<path d="M50.0432 56.61C50.0432 56.61 37.0259 58.6406 36.6279 58.6348C36.2372 58.629 28.3341 55.9433 28.1235 55.8692C28.2165 55.7792 29.7344 54.363 30.2427 52.9628C30.3008 52.8016 30.3488 52.6403 30.3764 52.482C30.6654 50.9017 30.5187 49.5421 31.7199 49.731C32.9211 49.9198 36.0542 50.6664 39.5431 50.5371C43.032 50.4078 46.4846 49.6917 46.7344 49.9343C47.266 50.4558 47.2457 51.9301 47.4331 53.1458C47.4912 53.5235 47.5711 53.8721 47.6902 54.1669C48.1767 55.3493 49.8834 56.5025 50.033 56.6057C50.0403 56.6057 50.0432 56.61 50.0432 56.61V56.61Z" fill="#002B4D"/>
<path d="M41.4367 40.5905C40.1687 41.8382 37.608 41.8091 36.3777 40.5309C36.0625 40.2041 35.6006 40.7343 35.9129 41.0596C37.4264 42.6312 40.4374 42.5586 41.9654 41.0553C42.2893 40.7372 41.7592 40.2738 41.4367 40.5905V40.5905Z" fill="#D94921"/>
<path d="M39.0768 32.6728C38.9417 32.2429 38.2605 32.4172 38.3956 32.85C38.6919 33.7971 39.0623 34.7107 39.3455 35.6635C39.514 36.23 39.7406 36.6251 39.4879 37.2279C39.3412 37.5765 38.9591 38.021 38.705 38.3187C38.4144 38.6615 38.9025 39.1684 39.1959 38.8227C39.6825 38.2505 40.4189 37.4748 40.3637 36.6774C40.2693 35.3338 39.4748 33.9438 39.0768 32.6714V32.6728Z" fill="#D94921"/>
<path d="M56.8408 59.6268C55.4348 59.974 54.0535 60.3778 52.7186 60.7467C46.6211 62.4418 40.6411 63.9872 34.2821 62.9356C31.441 62.4679 28.7118 61.5514 25.9084 60.9181C24.3819 60.5739 22.8335 60.2848 21.2822 60.0466C24.3063 58.1453 27.0312 56.517 28.1206 55.8707H28.1235C28.2165 55.7806 29.7343 54.3644 30.2427 52.9642C32.1847 53.4871 34.1209 54.058 36.1079 54.3775C39.9004 54.9948 43.7059 54.1916 47.433 53.1472C47.4911 53.5249 47.571 53.8735 47.6901 54.1684C48.1767 55.3507 49.8834 56.504 50.033 56.6071C50.0402 56.6071 50.0431 56.6115 50.0431 56.6115C51.6743 57.2782 54.1624 58.3385 56.8408 59.6283V59.6268Z" fill="#001526"/>
<path d="M74.7647 78.5792C74.5119 78.4979 74.2607 78.4252 74.0007 78.3613C72.9549 78.1144 71.4602 78.0941 70.2096 78.0955C67.2538 78.1013 64.2834 78.3221 61.3567 78.7215C55.4537 79.5291 49.6568 80.9352 43.6899 81.2634C38.0688 81.5743 32.4433 81.1327 26.8395 80.6548C21.0107 80.1566 15.2428 79.6148 9.39939 80.2394C7.9193 80.3992 6.44501 80.6084 4.97363 80.8553C5.61128 77.4535 6.44937 74.3045 7.79148 71.6304C8.92007 71.4909 10.0545 71.3762 11.1918 71.2861C22.9657 70.3609 34.6728 73.4417 46.486 72.2637C52.4776 71.6652 58.3442 70.1474 64.359 69.5983C66.2893 69.424 68.2488 69.2846 70.198 69.286C71.6142 71.5432 73.1887 74.8346 74.7632 78.5792H74.7647Z" fill="#001526"/>
<path d="M52.4612 28.7671C52.4162 28.6379 52.3639 28.5086 52.3058 28.3735C51.8105 27.2435 51.3573 26.1149 50.8751 24.9718C50.5991 24.321 50.2679 23.7676 49.8089 23.2535C49.3819 22.7727 48.8416 22.3892 48.4262 21.8692C48.0805 21.4393 47.8147 20.9353 47.469 20.5112C46.8008 19.7065 45.9511 19.2417 45.0636 18.7711C44.5407 18.4936 44.0236 18.2917 43.5574 17.9025C43.1231 17.5335 42.7876 17.0368 42.33 16.7027C40.7584 15.5625 38.8179 16.4718 37.1417 16.7274C35.8461 16.9278 34.5897 16.6795 33.2955 16.6257C32.3267 16.588 31.1269 16.3962 30.2104 16.8451C28.8669 17.4987 28.1188 19.0906 27.8763 20.5794C27.6787 21.7908 27.7179 23.0022 27.394 24.1947C27.1849 24.9718 26.8595 25.7082 26.5429 26.446C24.8928 27.518 23.2181 28.8223 23.558 31.0563C23.6844 31.8871 24.1317 32.8254 24.7824 33.3715C25.7585 34.1908 26.6968 33.5226 27.3693 32.6685C27.7078 32.2386 27.9387 31.5893 28.007 30.9386C28.5444 30.5871 29.0281 30.0744 29.275 29.659C29.9068 28.6117 30.2438 27.3175 30.4733 26.1062C30.6055 25.4177 30.8103 24.6115 30.9018 23.8141C31.6397 24.003 32.4705 23.9332 33.1038 23.6965C33.7269 23.4583 34.8439 22.8642 35.6457 22.1191C36.5956 22.8497 37.9609 23.1111 39.3088 23.1503C40.481 23.1837 41.4789 23.2506 42.4971 23.9361C43.1245 24.353 43.6838 24.7931 44.3708 25.0836C45.129 25.4003 45.7841 25.7256 46.4435 25.9275C46.6468 27.4221 47.4109 28.9138 48.4203 29.7447C48.7297 30.0003 49.2773 30.2923 49.8786 30.4927C49.9004 30.6583 49.9367 30.8181 49.96 30.9372C50.1532 31.8784 50.6993 32.9924 51.671 33.0985C51.7102 33.1028 51.7495 33.097 51.7858 33.0854C52.4191 33.2089 53.0436 32.6046 53.2063 31.9525C53.5128 30.7295 52.9623 29.7723 52.4641 28.7657L52.4612 28.7671Z" fill="#001526"/>
<path d="M48.9767 31.7463C48.3943 30.2981 47.3064 29.7055 45.8292 29.614C43.7826 29.4876 42.6046 29.9669 41.3874 31.9133C40.5261 31.4703 39.5791 31.2756 38.6015 31.2916C37.7664 31.3061 36.9602 31.3904 36.1555 31.6112C36.0422 30.9997 35.2361 30.4521 34.7234 30.1746C34.1119 29.8449 33.419 29.7244 32.732 29.6823C30.4806 29.5428 28.633 30.1616 28.4457 32.5306C28.251 34.9853 31.0471 36.5685 33.2171 36.079C34.9209 35.6941 36.2601 34.2663 36.2906 32.609C36.9617 32.3098 37.9988 32.2706 38.603 32.2604C39.5442 32.2445 40.4026 32.4347 41.2117 32.9213C41.2393 32.9373 41.264 32.9388 41.2916 32.9489C41.431 35.1567 44.0237 36.5293 46.0645 36.0689C48.1968 35.5881 49.8453 33.9018 48.9782 31.7448L48.9767 31.7463ZM34.1482 34.6411C32.7741 35.5808 30.7319 35.3296 29.7747 33.8945C29.1036 32.8894 29.3491 32.0919 30.1814 31.325C30.9135 30.6496 33.4219 30.4579 34.5215 31.4398C35.714 32.503 35.4017 33.7826 34.1482 34.6411V34.6411ZM46.9955 34.6324C45.6215 35.5721 43.5793 35.3208 42.6221 33.8858C41.951 32.8806 42.4303 31.9075 43.2612 31.1391C44.3636 30.1195 46.355 30.3039 47.4545 31.2844C48.647 32.3476 48.2505 33.7739 46.9955 34.6324V34.6324Z" fill="#FFD6B3"/>
</g>
<defs>
<clipPath id="clip0_694_200">
<rect width="79" height="79" rx="39.5" fill="white"/>
</clipPath>
</defs>
</svg>
