<svg width="79" height="79" viewBox="0 0 79 79" fill="none" xmlns="http://www.w3.org/2000/svg">
<g clip-path="url(#clip0_81_1386)">
<rect width="79" height="79" rx="39.5" fill="white"/>
<path d="M19.6181 51.6208C19.6181 51.6208 12.3031 55.2175 10.6269 60.8867C8.95069 66.5559 4.4095 94.8897 4.98809 97.0108C8.18855 108.745 17.0023 114.603 19.7457 115.06C22.4892 115.517 26.7058 109.202 26.8578 106.459C27.0097 103.716 26.8578 88.0439 26.8578 88.0439L24.953 73.8709L19.6193 51.6196L19.6181 51.6208Z" fill="#002B4D"/>
<path d="M49.791 31.8989C49.6962 33.4171 49.3948 34.9742 48.9766 36.4401C48.4406 38.312 44.8256 40.878 44.1486 40.9752C41.7771 41.3132 36.599 37.2412 34.9896 35.9247C33.3827 34.6083 32.7312 31.5537 32.7312 31.5537L30.92 23.8668C30.92 23.8668 33.6331 19.4958 35.9705 18.6668C38.3056 17.8378 44.8621 14.7467 44.8621 14.7467C45.0177 14.6738 46.2611 16.1762 46.4192 16.3597C46.9491 16.9821 48.6168 17.6311 49.1468 18.2559C49.6926 18.905 49.7934 21.2157 49.8506 22.7728C49.8725 23.2943 49.8907 23.7975 49.9053 24.2873C49.915 24.6107 49.9235 24.9304 49.9296 25.2476C49.9758 27.2654 49.9539 29.2345 49.7898 31.8989H49.791Z" fill="#FF6B42"/>
<path d="M49.7947 48.6233C49.7947 48.6233 41.63 59.8401 41.3407 59.7611C41.0514 59.676 28.6871 47.251 28.6871 47.251C28.6871 47.251 32.623 44.6813 32.8248 43.918C33.0265 43.1486 33.1432 32.9698 33.1432 32.9698C33.1432 32.9698 38.5183 34.7019 38.7845 34.7019C39.0507 34.7019 44.6567 38.3351 44.6567 38.3351C44.6567 38.3351 44.6506 38.7472 44.6396 39.3792C44.6372 39.7767 44.6311 40.2568 44.6251 40.7783C44.6165 41.6243 44.6129 42.5627 44.619 43.3819C44.619 43.7332 44.6214 44.0639 44.6275 44.3507C44.6396 44.9646 44.6627 45.3985 44.7004 45.4921C44.8645 45.8956 49.7959 48.6221 49.7959 48.6221L49.7947 48.6233Z" fill="#FF6B42"/>
<path d="M38.2472 27.128C38.0746 26.5823 37.4304 26.7038 37.3757 27.252C37.3441 27.5717 37.3319 28.1624 37.665 28.3436C37.9263 28.487 38.1767 28.2876 38.2618 28.0433C38.3238 27.8646 38.3457 27.4404 38.2472 27.1268V27.128Z" fill="black"/>
<path d="M47.7659 27.2654C47.6103 26.7706 47.0256 26.8812 46.9758 27.3772C46.9466 27.6665 46.9357 28.2013 47.2371 28.3666C47.4742 28.4967 47.7015 28.3168 47.778 28.0956C47.8352 27.9327 47.8546 27.5486 47.7647 27.2654H47.7659Z" fill="black"/>
<path d="M35.1878 24.8866C34.8012 25.7144 36.43 25.295 36.7242 25.2585C37.2845 25.1893 37.8485 25.1431 38.4138 25.1188C38.6642 25.1078 39.6366 25.2513 39.5892 24.8052C39.419 23.1715 35.7287 23.7258 35.1878 24.8866V24.8866Z" fill="#A6462B"/>
<path d="M49.932 25.2476C49.5236 25.2841 48.9754 25.1832 48.8162 25.171C48.2522 25.1345 47.6882 25.1187 47.1218 25.1285C46.8714 25.1321 45.9087 25.3266 45.9305 24.8781C45.9974 23.4693 48.7506 23.5276 49.9077 24.2873C49.9175 24.6107 49.926 24.9303 49.932 25.2476Z" fill="#A6462B"/>
<path d="M44.7162 30.3467C44.5545 29.5177 44.2336 28.7252 44.0258 27.9071C43.9285 27.5279 43.3584 27.743 43.4545 28.1199C43.6088 28.724 43.8155 29.3123 43.9832 29.914C44.2555 30.8937 44.0999 31.4954 43.6514 32.3632C43.4703 32.7121 44.0233 32.9722 44.2032 32.6234C44.5873 31.8819 44.8827 31.1903 44.7186 30.3467H44.7162Z" fill="#D94921"/>
<path d="M44.8572 34.4527C43.5785 35.1699 42.2281 34.8587 40.9773 34.2242C40.6673 34.0674 40.3975 34.5925 40.7099 34.7505C42.1539 35.4835 43.6575 35.8032 45.1259 34.979C45.4334 34.8064 45.1636 34.2813 44.8585 34.4527H44.8572Z" fill="#D94921"/>
<path d="M44.6263 44.352C43.9237 44.3046 42.9853 44.2207 41.9497 44.0712C39.7557 43.7551 37.4851 41.8383 37.4827 40.3906C37.4802 39.6649 38.2995 39.5859 38.5912 39.6831C38.8842 39.7792 42.0056 41.0725 42.9793 41.0968C43.9541 41.1235 44.6239 40.7808 44.6239 40.7808C44.6154 41.6268 44.6117 42.5651 44.6178 43.3844C44.6178 43.7357 44.6202 44.0663 44.6263 44.3532V44.352Z" fill="#D94921"/>
<path d="M32.9487 42.1458C32.9487 42.1458 39.6596 46.2044 40.8788 46.366C42.0979 46.5277 44.6262 44.3519 44.6262 44.3519C44.6262 44.3519 47.118 46.8328 47.8279 47.1756C48.5378 47.5184 50.5568 48.7752 50.6333 48.8907C50.7099 49.0049 50.276 60.415 41.3747 60.5876C30.9224 60.7906 27.8107 47.9 28.1158 47.443C28.4209 46.986 30.6307 45.0338 31.2786 44.3531C31.9265 43.6712 32.9499 42.147 32.9499 42.147L32.9487 42.1458Z" fill="#001526"/>
<path d="M40.8788 51.6718L40.0024 57.7287L43.3001 58.2247L45.2608 56.777L42.9148 51.3679L40.8788 51.6718Z" fill="#FFD6B3"/>
<path d="M28.9131 46.6019C28.9131 46.6019 34.1727 58.0338 42.4784 56.4719C50.784 54.9099 49.0215 48.7059 49.8845 48.379C50.7463 48.052 58.2911 53.2714 59.2052 54.1478C60.1192 55.0242 63.6625 58.2247 64.5012 63.635C65.3399 69.0453 65.1114 77.656 65.7969 82.0756C66.4825 86.4953 69.3633 96.9792 70.2932 104.25C70.6833 107.307 71.1817 112.404 66.8642 116.367C64.6714 118.378 63.5871 118.5 63.5871 118.5C63.5871 118.5 60.8692 110.194 60.259 109.813C59.6488 109.432 57.2615 110.955 51.0138 110.955C44.766 110.955 39.3545 109.736 35.088 109.659C30.8203 109.583 25.1815 108.897 23.5819 107.83C21.9822 106.763 20.0009 103.334 20.6865 100.744C21.372 98.1533 22.8963 93.4286 22.8197 91.2942C22.7432 89.1609 18.0184 73.7676 17.5614 70.8722C17.1043 67.9768 14.666 55.0218 17.1809 53.1171C19.6958 51.2123 28.9144 46.5994 28.9144 46.5994L28.9131 46.6019Z" fill="#002B4D"/>
<path d="M24.75 97.8142C23.904 96.1684 22.5013 95.0295 21.5702 93.4639C20.5066 91.6746 21.3928 89.3882 21.7416 87.4859C23.2209 79.4209 24.203 69.5971 19.2486 62.5009C18.2287 61.0398 17.215 59.6213 16.2718 58.1129C15.8694 57.4698 15.1267 55.993 14.1835 56.117C13.8006 56.1668 13.7945 56.777 14.1835 56.7272C15.1656 56.5983 16.5392 59.7976 17.0631 60.5293C18.5557 62.6139 20.1177 64.5867 20.9722 67.0396C22.6581 71.8835 22.5378 77.8201 21.8838 82.8499C21.5593 85.3466 20.9612 87.791 20.5893 90.2768C20.3511 91.8667 20.4787 93.0542 21.4499 94.3561C22.1354 95.2762 23.0094 96.0554 23.6281 97.0278C24.1763 97.8896 24.609 98.8486 25.0308 99.7773C26.1515 102.242 27.0923 105.058 26.2864 107.754C26.1734 108.13 26.7617 108.291 26.8748 107.915C27.9067 104.462 26.3156 100.857 24.7525 97.8167L24.75 97.8142Z" fill="#15456B"/>
<path d="M60.428 98.2652C59.9066 95.4342 59.9029 92.8877 60.6286 90.092C61.206 87.87 61.488 85.7332 61.1294 83.4455C60.7417 80.9647 59.9856 78.5555 59.6173 76.0673C59.2198 73.3762 59.5517 70.736 59.7206 68.0437C59.8786 65.5275 60.298 63.0345 60.4183 60.5159C60.4925 58.9552 60.6007 57.1903 59.8616 55.7596C59.6817 55.4108 59.1554 55.7195 59.3353 56.0671C60.2007 57.7421 59.8762 60.1282 59.7133 61.949C59.5067 64.2573 59.2283 66.5486 59.0545 68.8605C58.8843 71.1214 58.657 73.3531 58.9439 75.6152C59.2186 77.7861 59.7753 79.9023 60.2384 82.0367C60.8097 84.6732 60.7927 87.052 60.1108 89.6629C59.5723 91.722 59.2526 93.6571 59.4508 95.794C59.655 97.9966 60.2336 100.138 60.5885 102.317C60.8656 104.016 61.5269 107.44 60.1959 108.937C59.9358 109.23 60.3661 109.662 60.6274 109.369C61.426 108.469 61.5159 106.844 61.5293 105.697C61.5597 103.19 60.8778 100.712 60.428 98.2664V98.2652Z" fill="#15456B"/>
<path d="M41.3735 46.6019C40.5932 46.794 39.1005 49.868 39.7095 51.2391C40.2139 52.3756 43.8313 51.8931 43.9261 51.0361C44.1109 49.3563 42.1539 46.4098 41.3735 46.6019V46.6019Z" fill="#FFD6B3"/>
<path d="M53.9737 14.3322C53.7415 12.7423 52.8396 11.3809 51.0977 11.1257C49.6318 10.9105 48.0808 11.3201 46.717 11.8294C46.6805 11.8416 46.6501 11.8598 46.6258 11.8817C45.7239 11.3578 44.7333 10.9944 43.6964 10.8181C41.6325 10.4741 39.6147 10.9093 37.7683 11.7869C37.4389 11.9437 36.3972 11.7079 35.9633 11.7431C35.2984 11.7978 34.6396 11.9328 34.0111 12.154C32.8114 12.577 31.9119 13.3744 30.914 14.1438C28.6142 15.9172 27.9505 18.9524 28.2435 21.7153C28.5948 25.0179 30.6065 27.4732 31.7685 30.4901C32.2705 31.7944 32.9536 35.0885 33.1189 34.8295C33.1797 34.7323 33.2283 33.7125 33.2344 33.597C33.277 32.4812 33.2502 32.1834 33.1931 31.0432C33.1287 29.7268 33.7206 28.51 33.8458 27.2143C33.9467 26.1933 33.8823 25.1564 33.7206 24.1451C33.6197 23.5106 33.0047 22.3899 33.3304 21.7676C33.9005 20.6797 35.5184 20.5058 36.5953 20.3199C39.6281 19.796 42.493 20.4718 45.493 20.7805C47.749 21.0115 50.4571 20.969 52.3011 19.4544C53.5981 18.3896 54.2508 16.2029 53.9761 14.331L53.9737 14.3322Z" fill="#A6462B"/>
<path d="M34.6103 31.8017C34.5787 31.7762 34.5496 31.747 34.5179 31.7202C34.4158 31.4869 34.2858 31.2681 34.1484 31.0541C34.1885 30.969 34.1983 30.8657 34.1557 30.7466C34.0062 30.3151 33.8069 29.8775 33.7595 29.4193C33.7412 29.2454 33.7449 29.0619 33.7607 28.8869C33.7631 28.8188 33.7704 28.7507 33.7813 28.6839C33.8069 28.6328 33.8117 28.6024 33.8057 28.5866C34.1958 28.431 34.2141 27.8221 33.847 27.72C33.8725 27.6774 33.8883 27.6507 33.8859 27.6495C34.3259 28.0384 34.975 27.393 34.5325 27.0028C34.5021 26.9761 34.4705 26.9566 34.4389 26.9347C34.4146 26.8338 34.3563 26.7378 34.2493 26.6649C33.7546 26.3233 33.3182 26.4303 32.9779 26.7366C32.5391 27.0295 32.2461 27.585 32.2133 28.1442C32.1987 28.3836 32.2085 28.6207 32.2352 28.854C32.3166 30.0805 32.9098 31.5124 33.8105 32.3195C33.8458 32.3596 33.8847 32.3936 33.926 32.4179C33.9381 32.4289 33.9503 32.4398 33.9625 32.4496C34.4207 32.8093 35.0722 32.1663 34.6091 31.8029L34.6103 31.8017Z" fill="#FF6B42"/>
</g>
<defs>
<clipPath id="clip0_81_1386">
<rect width="79" height="79" rx="39.5" fill="white"/>
</clipPath>
</defs>
</svg>
