<svg width="79" height="79" viewBox="0 0 79 79" fill="none" xmlns="http://www.w3.org/2000/svg">
<g clip-path="url(#clip0_74_1363)">
<rect width="79" height="79" rx="39.5" fill="white"/>
<path d="M57.3764 34.254C56.9929 32.861 56.1673 31.6062 55.6247 30.2759C53.8639 25.9586 55.296 21.0506 52.4135 17.1103C48.1811 11.3257 39.4305 10.3358 33.0447 12.6053C30.5848 13.4791 28.5958 15.1525 27.5654 17.5811C26.5154 20.0528 26.5937 22.7501 26.3954 25.3769C26.188 28.1212 25.1015 30.2602 23.9603 32.7345C23.0668 34.6713 22.3573 36.8365 22.8412 38.9142C23.0995 40.0242 23.6577 41.0311 23.6342 42.1958C23.6003 43.8497 22.6834 45.4709 23.2338 47.1248C24.1755 49.9225 27.4219 51.5998 30.3213 51.3311C30.4831 51.3155 31.3609 52.2663 31.5148 52.3902C32.0821 52.8467 32.6639 53.2862 33.2573 53.7075C35.755 55.4788 38.5058 57.1052 41.5396 57.7196C44.1051 58.2387 46.8142 57.7626 49.2962 57.057C51.0949 56.5405 52.8974 55.7631 54.0543 54.2188C55.4943 52.295 55.8725 49.989 55.7942 47.6386C55.7538 46.4243 55.5347 45.2087 55.5216 43.9957C55.5073 42.7123 55.9938 41.4485 56.449 40.2694C57.092 38.6038 57.7898 36.8208 57.5329 35C57.4964 34.7457 57.4429 34.4979 57.3764 34.254V34.254Z" fill="#002B4D"/>
<path d="M30.3175 22.9236C30.3175 22.9236 30.9331 34.0557 32.6052 37.3399C34.0048 40.0894 38.5854 42.8975 40.1415 42.9432C42.5414 43.0123 46.2286 40.1768 47.5042 37.7286C49.115 34.6374 49.8324 24.1183 49.8324 24.1183L47.1912 18.1407L31.4783 17.0986L30.3175 22.9236V22.9236Z" fill="#FF6B42"/>
<path d="M54.0426 52.6836C54.0426 52.6836 46.5312 71.1955 45.776 72.0746C45.0169 72.9563 41.7757 73.4911 40.8053 73.5185C39.8349 73.5498 36.2911 70.5421 35.9781 69.9408C35.6677 69.3356 26.1059 53.3997 26.1059 53.3997C26.1059 53.3997 31.1783 49.1686 33.2195 46.3722C33.5573 45.9104 33.8025 45.3665 33.9773 44.7848C34.5225 42.9706 34.379 40.7663 34.1925 39.3407C34.0725 38.459 33.9395 37.8747 33.9395 37.8747L46.149 37.1208C46.149 37.1208 46.0512 42.0471 46.9994 45.45C47.9476 48.8529 54.0413 52.6823 54.0413 52.6823L54.0426 52.6836Z" fill="#FF6B42"/>
<path d="M31.1913 26.8808C31.1209 26.856 30.0566 26.4138 29.124 26.8521C28.1915 27.2916 28.4928 29.775 29.0706 30.7728C30.1662 32.6653 31.8722 32.784 31.8722 32.784L31.1913 26.8808Z" fill="#FF6B42"/>
<path d="M34.366 28.5855C34.1743 28.0038 33.4869 28.1434 33.436 28.7303C33.4061 29.072 33.4021 29.7033 33.7608 29.8937C34.0425 30.0424 34.3073 29.8272 34.3947 29.5651C34.4586 29.3733 34.4756 28.9194 34.366 28.5855V28.5855Z" fill="black"/>
<path d="M46.5717 28.6155C46.3917 28.0703 45.7473 28.2007 45.6991 28.7512C45.6717 29.0707 45.6678 29.6629 46.003 29.8416C46.2664 29.9811 46.5156 29.7789 46.5977 29.5324C46.6577 29.3524 46.6734 28.9272 46.5717 28.6142V28.6155Z" fill="black"/>
<path d="M44.4391 43.2941C43.6983 44.1249 41.7784 45.7435 39.8154 45.8948C38.2163 46.0174 35.086 45.1227 33.9774 44.7862C34.5226 42.9719 34.3856 40.8159 34.1991 39.3916C34.1991 39.3916 38.1968 43.1558 40.5784 42.5741C42.377 42.1358 43.4126 41.3676 43.9357 41.4107C44.4587 41.4511 45.1839 42.4632 44.4391 43.2941V43.2941Z" fill="#D94921"/>
<path d="M40.1961 33.6018C39.3314 32.2871 39.8114 30.465 40.1127 29.0407C40.2079 28.5907 39.5179 28.399 39.4214 28.8503C39.0744 30.4872 38.5879 32.4593 39.5766 33.9631C39.8296 34.3466 40.4492 33.9879 40.1948 33.6018H40.1961Z" fill="#D94921"/>
<path d="M42.3222 35.3418C41.3271 35.3118 41.0597 35.3522 39.6706 35.3744C39.1619 35.3822 37.5081 35.2453 37.3229 35.7018C37.0477 36.3748 38.5724 37.3152 39.0798 37.4156C40.5132 37.6987 42.5009 37.43 42.8296 35.7722C42.8674 35.5844 42.6796 35.3535 42.3209 35.3418H42.3222Z" fill="white"/>
<path d="M36.2077 25.7278C36.2312 25.6795 36.2403 25.6234 36.2325 25.5582C36.1946 25.2569 35.4747 25.0261 35.2321 24.9569C34.7508 24.82 34.2186 24.8435 33.7282 24.9061C33.0982 24.9869 32.1565 25.1096 31.6752 25.5804C30.9161 26.3225 32.4513 26.2639 32.8543 26.2417C33.5808 26.2012 34.306 26.1412 35.0273 26.0526C35.2855 26.0213 36.0512 26.046 36.2064 25.7278H36.2077Z" fill="#002B4D"/>
<path d="M43.5887 25.7265C43.5652 25.6783 43.5561 25.6222 43.5639 25.557C43.6017 25.2557 44.323 25.0261 44.5643 24.957C45.0456 24.82 45.5777 24.8435 46.0681 24.9074C46.6981 24.9896 47.6398 25.1122 48.1198 25.5831C48.8789 26.3252 47.3437 26.2665 46.9394 26.243C46.2129 26.2013 45.4877 26.1413 44.7665 26.0526C44.5082 26.0213 43.7426 26.0461 43.5874 25.7265H43.5887Z" fill="#002B4D"/>
<path d="M50.5132 20.8823C50.1089 19.3237 49.5637 17.7651 48.0625 16.9629C46.393 16.0708 44.0778 15.8595 42.2401 15.5517C38.5607 14.9347 34.4469 12.6992 31.1718 15.5621C29.6875 16.8599 28.9493 18.7342 28.7863 20.6684C28.7054 21.6414 28.7602 22.6236 28.9063 23.5887C29.0106 24.2735 29.0041 25.0783 29.3536 25.6952C29.5401 26.0252 29.964 26.466 30.3253 26.5965C31.0192 26.8495 31.1197 26.3539 31.4536 25.7995C32.3666 24.2774 33.3565 22.7957 34.1091 21.1836C34.5773 20.1793 34.6726 19.5898 35.7642 19.1502C36.6929 18.7746 37.7181 18.712 38.708 18.755C40.4636 18.8333 42.3053 19.265 43.7974 20.2824C45.476 21.4275 46.6551 23.2679 47.6294 25.0104C49.2598 27.9347 48.6546 30.9515 49.4033 34.0427C49.4711 34.3179 49.8937 34.3192 49.9589 34.0427C50.2393 32.8414 50.0163 31.5567 50.328 30.3841C50.6789 29.0655 51.1993 27.9307 51.3049 26.5365C51.4523 24.5996 50.9971 22.741 50.5132 20.8823V20.8823Z" fill="#002B4D"/>
<path d="M41.2605 55.321C49.8337 55.321 50.388 49.9186 50.388 49.9186L55.8908 53.7623C55.8908 53.7623 51.7705 92.3095 51.7705 96.5198C51.7705 100.73 55.8908 114.151 55.8908 114.151C55.8908 114.151 49.8454 115.599 43.1048 115.599H22.686C22.686 115.599 27.4063 61.1134 26.8689 58.8856C26.3315 56.6579 25.1668 53.075 25.1668 53.075L29.9757 49.9186C29.9757 49.9186 31.8709 55.321 41.2605 55.321V55.321Z" fill="#001526"/>
<path d="M50.388 49.9186C50.388 49.9186 51.8488 70.8121 51.3323 76.5445C50.8158 82.2769 48.365 96.8002 49.2624 102.902C49.7906 106.491 49.3772 110.129 49.5024 113.736C49.5767 115.89 49.8389 118.403 51.9962 119.473C54.8774 120.901 58.5112 120.748 61.648 120.842C63.9135 120.91 67.8121 120.935 68.4903 118.107C69.2064 115.122 67.1769 109.769 67.893 109.867C68.609 109.964 76.1205 108.691 77.7926 106.293C79.6903 103.571 77.2604 99.7962 76.8574 97.7419C75.4044 90.3192 74.2605 82.5808 71.5945 75.4685C69.4451 69.7361 70.5198 63.4898 66.8169 57.9374C63.114 52.385 58.3429 51.6846 55.5934 50.6177C52.844 49.5508 50.3854 49.9173 50.3854 49.9173L50.388 49.9186Z" fill="#0062AD"/>
<path d="M29.9757 49.9186C29.9757 49.9186 33.2586 72.1073 32.4226 79.7596C31.5865 87.4119 33.9604 109.985 34.4456 114.404C34.9308 118.823 34.186 120.866 30.3188 120.859C26.4515 120.854 22.1513 121.211 19.0457 121.45C15.9402 121.689 15.7015 118.465 15.4628 116.315C15.2241 114.166 14.4481 109.358 11.1039 109.239C7.75966 109.119 6.34058 106.271 6.81926 101.955C7.29663 97.6389 11.7052 74.3572 11.7612 69.4008C11.8473 61.7564 15.2254 56.3605 19.2857 53.7623C22.2152 51.8881 29.977 49.9186 29.977 49.9186H29.9757Z" fill="#0062AD"/>
<path d="M66.2326 105.744C64.8357 102.543 65.3509 98.5401 64.7418 95.1176C63.9436 90.6308 63.1258 86.1401 62.6784 81.6012C62.2689 77.4457 62.2636 73.332 62.7384 69.1817C63.2158 65.0079 63.9149 60.8694 63.9527 56.6565C63.9566 56.1948 63.2406 56.1948 63.2366 56.6565C63.1975 61.0898 62.4189 65.441 61.9493 69.8377C61.4798 74.2267 61.6076 78.5883 62.1084 82.9694C62.5949 87.2201 63.3632 91.4317 64.1105 95.6419C64.7183 99.0631 64.2018 102.872 65.6144 106.105C65.7983 106.526 66.4165 106.162 66.2326 105.744V105.744Z" fill="#001526"/>
<path d="M20.2927 68.7213C20.2327 66.7257 20.0762 64.7171 19.668 62.7594C19.1958 60.4912 18.4471 58.2908 18.6271 55.9418C18.6623 55.4814 17.945 55.484 17.9111 55.9418C17.765 57.8513 18.2019 59.6708 18.6441 61.5164C19.188 63.7871 19.4827 66.0645 19.5675 68.3991C19.7358 73.0203 19.3562 77.6883 19.0628 82.299C18.7458 87.2906 18.2789 92.2638 17.5654 97.215C17.002 101.128 16.7568 105.183 15.236 108.875C15.0599 109.302 15.7538 109.487 15.9272 109.066C17.4467 105.377 17.6959 101.316 18.2567 97.4054C18.9428 92.6225 19.4162 87.8214 19.7345 83.0007C20.0462 78.2648 20.4349 73.4702 20.294 68.7226L20.2927 68.7213Z" fill="#001526"/>
</g>
<defs>
<clipPath id="clip0_74_1363">
<rect width="79" height="79" rx="39.5" fill="white"/>
</clipPath>
</defs>
</svg>
